<svg width="339" height="248" viewBox="0 0 339 248" fill="none" xmlns="http://www.w3.org/2000/svg">
<path d="M67.2046 114.948H68.1057C69.0953 114.943 70.0796 114.943 71.064 114.948H73.163C74.6369 114.943 76.1109 114.948 77.5848 114.948C79.4234 114.948 81.2619 114.948 83.1057 114.948C92.6213 114.937 102.121 115.083 111.632 115.417C110.84 117.068 109.835 118.531 108.793 120.026L107.548 121.823L106.892 122.771C105.741 124.443 104.595 126.115 103.455 127.786C101.929 130.026 100.392 132.255 98.8453 134.479C97.2671 136.75 95.7307 139.047 94.2098 141.354C92.9234 143.292 92.9234 143.292 92.465 143.75C91.6525 143.786 90.8401 143.792 90.0328 143.786L88.4494 143.776L87.5953 143.771C86.7098 143.766 85.8296 143.76 84.9442 143.755C82.4286 143.745 79.9182 143.729 77.4025 143.714C75.8661 143.703 74.3244 143.693 72.788 143.687C72.2046 143.687 71.6265 143.682 71.0432 143.677C64.8557 143.615 59.2098 144.349 53.2984 146.25L52.1213 146.599C47.0432 148.224 42.3661 151.578 38.715 155.417C34.2932 160.479 31.5223 165.917 29.965 172.5L29.6786 173.641C28.1786 180.484 29.2619 187.437 31.2723 194.057C32.3973 197.187 33.8921 200.187 35.7984 202.917L37.0484 203.75L37.6213 204.714C38.4025 206.005 39.2932 206.88 40.3817 207.917L41.0015 208.594C44.9338 212.807 50.4078 215.437 55.8296 217.177C57.4963 217.62 59.0796 217.802 60.7984 217.917V218.75L62.2046 218.516L63.715 218.333L64.5484 218.75C65.2046 218.792 65.8609 218.802 66.5171 218.802H67.7567L69.0953 218.792H70.465C71.913 218.786 73.3609 218.781 74.8088 218.776C75.788 218.776 76.7671 218.776 77.7463 218.771C80.1526 218.771 82.5588 218.76 84.965 218.75L85.3817 204.583H59.1317C59.7619 203.323 60.2463 202.495 61.1161 201.443L61.7932 200.615L62.5171 199.74L64.0015 197.932L64.7255 197.052C65.5275 196.073 66.3192 195.083 67.1005 194.089C68.5536 192.266 70.0588 190.49 71.5692 188.714C73.6525 186.255 75.6942 183.766 77.715 181.26C79.0432 179.63 79.0432 179.63 79.965 179.167C81.2098 179.115 82.4494 179.089 83.6994 179.083L84.8348 179.078C85.6317 179.073 86.4338 179.073 87.2307 179.068C88.4338 179.062 89.6421 179.052 90.8453 179.036C95.4234 179.01 99.6317 179.078 103.85 181.078C107.804 183.74 110.028 186.068 112.225 190.344C114.689 196.375 114.298 202.75 114.267 209.135C114.267 210.219 114.267 211.307 114.267 212.391C114.262 214.646 114.257 216.906 114.246 219.167C114.236 222.068 114.231 224.969 114.231 227.87C114.231 230.099 114.225 232.333 114.22 234.562L114.215 237.776C114.21 239.26 114.205 240.75 114.199 242.24V243.589L114.189 244.807L114.184 245.875L114.132 246.667L113.715 247.083C113.064 247.125 112.413 247.141 111.762 247.141L110.486 247.146H109.069L107.585 247.151C106.241 247.151 104.892 247.156 103.543 247.156H101.012C98.0588 247.161 95.1057 247.161 92.1525 247.161C89.413 247.161 86.6734 247.167 83.939 247.172C81.5796 247.177 79.2203 247.182 76.8609 247.182C75.4598 247.182 74.0536 247.182 72.6473 247.187C66.9703 247.203 61.4078 247.208 55.7984 246.25L54.4338 246.031C47.4807 244.854 40.814 242.849 34.5484 239.583V238.75L33.1161 238.385L31.6317 237.917L31.215 237.083C30.3713 236.812 30.3713 236.812 29.5484 236.667V235.833H28.2984V234.583H26.6317C25.9182 233.906 25.2255 233.214 24.5484 232.5L23.5588 231.953C22.215 231.094 21.3661 230.047 20.34 228.839C18.1317 226.172 18.1317 226.172 15.3817 224.167C14.9598 223.479 14.5432 222.781 14.1317 222.083C13.3192 220.99 12.4911 219.906 11.6525 218.833C11.215 218.26 10.7932 217.677 10.3817 217.083V216.25L9.54838 215.833L9.13171 214.583L8.29838 213.75C7.91296 212.995 7.54838 212.234 7.20463 211.458L6.64213 210.224C6.21505 209.167 6.21505 209.167 6.21505 208.333L5.38171 207.917V206.667H4.54838L4.20984 205.443C3.88171 204.281 3.50151 203.146 3.09005 202.005C2.46505 200.156 2.14213 198.323 1.85567 196.396C1.61088 194.875 1.29317 193.38 0.980672 191.875C-0.810995 182.703 0.0483809 173.87 1.98067 164.818C2.35567 163.078 2.66296 161.349 2.88171 159.583H3.71505V157.083H4.54838V155H5.38171V152.917L6.21505 152.5C6.564 151.818 6.89213 151.12 7.20463 150.417C9.16296 146.38 11.8557 142.677 14.6994 139.219L15.3817 138.333V137.5L17.0484 136.667V135.833L18.2984 135C19.6734 133.932 20.9598 132.807 22.2307 131.615C26.9963 127.318 32.9963 122.88 39.1317 120.833C40.4442 120.365 41.7515 119.885 43.064 119.401L44.1473 119.01L45.1994 118.625L46.1525 118.276C47.0588 117.927 47.0588 117.927 47.939 117.469C48.8348 117.026 49.5484 116.932 50.538 116.849C51.6265 116.75 52.663 116.63 53.7411 116.432C55.2775 116.203 56.7411 116.224 58.2984 116.25V115.417L60.6578 115.458C61.663 115.443 61.663 115.443 62.7515 115.214C64.2567 114.984 65.6838 114.948 67.2046 114.948Z" fill="#F6AD34"/>
<path d="M289.866 115.37H291.309C292.871 115.37 294.434 115.375 295.996 115.38H299.257C301.819 115.38 304.382 115.385 306.95 115.391C309.866 115.391 312.788 115.396 315.71 115.396C321.71 115.401 327.71 115.411 333.715 115.417C333.455 116.849 333.2 117.823 332.34 119.005C332.142 119.281 331.944 119.557 331.736 119.844L331.085 120.729L329.71 122.635L328.996 123.62C327.913 125.125 326.84 126.635 325.773 128.151L325.148 129.036C323.549 131.302 321.97 133.588 320.418 135.885C320.08 136.385 319.731 136.88 319.377 137.375C318.674 138.365 318.674 138.365 318.012 139.578C317.069 141.083 316.283 142.141 314.965 143.333C312.757 144.016 310.642 143.927 308.366 143.844C307.726 143.838 307.09 143.833 306.45 143.833C304.773 143.828 303.101 143.792 301.429 143.75C298.752 143.687 296.08 143.661 293.403 143.646C292.476 143.63 291.549 143.609 290.621 143.583C288.002 143.531 285.762 143.573 283.366 144.74C282.273 145.365 281.512 145.948 280.59 146.823C279.642 148.479 279.158 149.927 279.101 151.844C279.194 153.594 279.424 155.068 280.356 156.562C283.116 159.812 287.835 161.51 291.554 163.411C292.632 163.969 293.715 164.521 294.793 165.078L295.601 165.495C297.528 166.484 299.45 167.495 301.366 168.51C304.705 170.276 308.085 171.963 311.502 173.568C326.116 180.505 326.116 180.505 330.955 186.797C333.788 190.974 336.293 195.865 337.309 200.807L337.611 202.255C338.121 205.088 338.377 207.828 338.377 210.703V211.687C338.351 214.5 338.101 217.25 337.465 220L337.049 220.417C336.892 221.391 336.757 222.359 336.632 223.333H335.799L335.689 224.594C335.424 226.432 334.684 227.859 333.767 229.453L333.273 230.328C331.585 233.177 329.554 235.74 327.049 237.917C326.08 238.26 326.08 238.26 325.382 238.333V239.167C324.627 239.844 324.627 239.844 323.715 240.417H322.465V241.25C314.674 245.057 314.674 245.057 311.215 245.833L310.194 246.078C303.299 247.521 296.017 247.141 289.012 247.125H286.017C283.413 247.125 280.809 247.12 278.2 247.115C275.533 247.109 272.866 247.109 270.2 247.104C264.981 247.099 259.767 247.094 254.549 247.083C254.538 244.318 254.528 241.547 254.523 238.776C254.523 237.833 254.523 236.896 254.517 235.958C254.496 230.344 254.564 224.771 254.965 219.167H255.689C261.512 219.13 267.34 219.094 273.163 219.047C275.981 219.026 278.799 219.01 281.616 218.995C284.34 218.979 287.059 218.958 289.778 218.937C290.814 218.927 291.851 218.922 292.887 218.917C294.345 218.911 295.799 218.896 297.252 218.885L298.543 218.88C301.694 218.844 304.767 218.646 307.621 217.213C308.642 216.318 309.465 215.495 310.09 214.276C310.736 212.193 310.642 210.062 310.382 207.917C309.929 206.417 309.127 205.411 308.012 204.302C306.788 203.203 305.627 202.365 304.132 201.667V200.833L303.205 200.677C302.085 200.427 301.2 200.083 300.163 199.583L299.08 199.062L297.96 198.516L296.892 198.005C294.377 196.792 291.877 195.547 289.382 194.292C287.408 193.302 285.429 192.323 283.444 191.349C281.939 190.604 280.429 189.859 278.929 189.115C278.158 188.734 277.387 188.354 276.621 187.974C270.481 184.963 264.892 181.917 259.965 177.083L259.002 176.172C255.304 172.396 252.757 167.552 251.424 162.448C249.778 155.62 249.793 148.453 251.632 141.667L251.981 140.365C253.871 134.115 257.226 129.766 261.778 125.286C266.752 120.646 273.174 117.818 279.7 116.141C283.09 115.458 286.418 115.359 289.866 115.37Z" fill="#E05F72"/>
<path d="M324.132 0L324.965 0.416667C325.512 2.94792 325.439 5.50521 325.439 8.07813V9.48438C325.439 11.0052 325.439 12.5208 325.434 14.0365V15.6094C325.418 28.8854 325.168 42.1563 324.549 55.4167H323.715C323.158 54.7865 323.158 54.7865 322.517 53.8906L321.799 52.901L321.033 51.8229C320.507 51.099 319.981 50.375 319.45 49.651L318.653 48.5521C317.559 47.0677 316.439 45.5938 315.304 44.1406L314.741 43.4167C313.897 42.3385 313.2 41.6042 312.049 40.8333L311.783 41.8125C311.007 43.901 309.924 45.7552 308.819 47.6823L308.095 48.9531C304.21 55.7292 300.2 62.3594 295.611 68.6823C294.918 69.651 294.236 70.6302 293.564 71.6094C290.304 76.3333 286.882 80.9375 283.299 85.4167L282.746 86.1146C280.71 88.6719 278.569 91.1146 276.356 93.5208C275.528 94.4271 274.72 95.3438 273.924 96.276C272.465 97.9583 270.887 99.5052 269.304 101.063C268.429 101.953 267.59 102.875 266.788 103.828C265.616 105.198 264.351 106.349 262.981 107.51C261.856 108.505 260.809 109.563 259.757 110.625C258.252 112.146 256.726 113.62 255.095 115.01C254.325 115.672 253.559 116.339 252.799 117.01C239.913 128.385 225.512 138.13 210.382 146.25C210.028 146.443 209.674 146.635 209.304 146.833C202.866 150.318 196.283 153.391 189.549 156.25L188.272 156.797C177.085 161.505 165.517 165.5 153.715 168.333L152.903 168.531C132.58 173.469 111.944 175.943 91.0277 175.875H88.8193C86.9131 175.87 85.012 175.87 83.1058 175.865C81.1527 175.859 79.1943 175.859 77.2412 175.854C73.4235 175.849 69.611 175.844 65.7985 175.833L65.3818 174.583L66.3089 174.083C67.5277 173.292 68.335 172.479 69.2881 171.38L70.2829 170.255C70.8298 169.62 71.3714 168.984 71.9131 168.344C73.6995 166.26 75.6162 164.339 77.5693 162.406C78.7412 161.24 79.887 160.073 80.9548 158.802C82.46 157.063 84.0537 155.417 85.6683 153.776L86.4964 152.927L87.2881 152.125L87.9964 151.406C88.7152 150.833 88.7152 150.833 89.5329 150.521C90.5068 150.406 91.0954 150.589 92.0485 150.833C93.1683 150.896 94.2777 150.943 95.4027 150.969L96.3766 150.995C97.3975 151.021 98.4183 151.047 99.4443 151.068L101.528 151.125C103.231 151.167 104.929 151.214 106.632 151.25V150.417L108.21 150.464C117.674 150.641 126.96 149.359 136.293 147.943C136.627 147.896 136.965 147.844 137.309 147.792C142.694 146.979 148.022 145.911 153.299 144.583L155.731 143.979L156.632 143.75C159.965 142.917 159.965 142.917 160.83 142.708C162.179 142.365 163.496 141.927 164.825 141.51C165.799 141.25 165.799 141.25 167.049 141.25V140.417L168.304 140.276C170.012 140.031 171.606 139.521 173.236 138.953L174.163 138.641C174.804 138.417 175.45 138.198 176.095 137.974C177.059 137.635 178.028 137.307 178.991 136.979C182.439 135.797 185.804 134.521 189.132 133.042C190.34 132.521 191.559 132.057 192.804 131.615C200.299 128.76 207.434 124.875 214.418 120.958C215.241 120.5 216.064 120.047 216.897 119.599C224.106 115.635 230.934 110.828 237.465 105.833L238.194 105.276C243.387 101.302 248.33 97.0677 253.08 92.5781C253.976 91.8021 254.71 91.2865 255.799 90.8333V90C256.351 89.4583 256.351 89.4583 257.153 88.8021C260.455 85.9948 263.528 82.8802 266.34 79.5781C267.163 78.6146 268.017 77.6823 268.871 76.7448C270.84 74.5573 272.71 72.3021 274.549 70L275.064 69.3594C281.804 60.9479 287.976 52.1719 293.507 42.9167L293.96 42.1667C295.621 39.3333 296.934 36.3177 298.299 33.3333L297.59 33.276C295.163 33.0781 292.736 32.875 290.309 32.6667C289.403 32.5938 288.496 32.5156 287.59 32.4427C286.288 32.3385 284.991 32.2292 283.689 32.1146L282.455 32.0156L281.314 31.9167L280.309 31.8333L279.549 31.6667L279.132 30.8333L279.97 30.3125C282.814 28.5156 285.595 26.6458 288.351 24.7135L289.611 23.8333C292.064 22.125 294.507 20.401 296.944 18.6719C303.283 14.1875 309.726 9.85417 316.205 5.57292C318.908 3.78646 321.569 1.98958 324.132 0Z" fill="#F38D47"/>
<path d="M236.632 140H237.882C238.211 143.25 238.539 146.5 238.862 149.75C239.007 151.26 239.164 152.766 239.315 154.276C239.461 155.734 239.606 157.193 239.752 158.651C239.836 159.474 239.919 160.297 240.002 161.12C240.268 163.818 240.419 166.453 240.382 169.167C240.513 170.005 240.653 170.839 240.799 171.667C240.924 173.271 240.981 174.875 241.049 176.479L241.096 177.453L241.138 178.333C241.195 179.177 241.195 179.177 241.429 180.005C241.7 181.125 241.638 182.214 241.617 183.359C241.606 184.214 241.606 184.214 241.841 185.208C242.049 186.25 242.049 186.25 242.039 187.745C242.028 189.651 242.205 191.521 242.409 193.417L242.643 195.641L242.763 196.786C242.95 198.583 243.127 200.375 243.31 202.172L243.528 204.365C243.81 207.203 244.091 210.036 244.372 212.875C244.586 215.005 244.799 217.141 245.013 219.276C246.653 235.682 246.653 235.682 247.19 242.422L247.299 243.755L247.388 244.932L247.466 245.932V246.667L247.049 247.083C246.429 247.135 245.81 247.151 245.185 247.161L243.987 247.177L242.674 247.182L241.33 247.193C240.388 247.198 239.445 247.203 238.502 247.208C237.065 247.214 235.632 247.234 234.2 247.25C233.284 247.255 232.367 247.26 231.45 247.26L230.159 247.286C227.382 247.276 225.304 246.792 222.882 245.417C221.231 244.302 219.909 243.016 218.768 241.38C217.523 237.714 217.299 233.729 216.997 229.885L216.872 228.417C216.742 226.833 216.617 225.245 216.487 223.656L216.211 220.313C216.023 217.984 215.83 215.651 215.643 213.318C215.429 210.641 215.211 207.969 214.992 205.292C214.778 202.698 214.565 200.099 214.356 197.505L214.091 194.224C213.612 188.375 213.164 182.531 212.882 176.667C211.622 177.896 210.685 179.068 209.768 180.573L208.955 181.911L208.091 183.333C207.789 183.828 207.492 184.318 207.19 184.813C205.252 187.995 203.33 191.188 201.429 194.385C199.549 197.526 197.601 200.62 195.653 203.719C193.872 206.568 192.132 209.443 190.435 212.344C188.893 214.969 187.346 217.589 185.721 220.156L184.841 221.547L184.132 222.5H183.299C182.627 221.438 182.007 220.375 181.398 219.271C179.393 215.734 177.315 212.25 175.2 208.776L173.356 205.755L172.909 205.016C171.606 202.875 170.31 200.724 169.028 198.568C167.341 195.75 165.632 192.948 163.898 190.156L163.221 189.063C162.106 187.271 160.992 185.479 159.867 183.693L158.612 181.667L158.023 180.74L157.487 179.87L157.013 179.12C156.554 178.182 156.382 177.281 156.216 176.25L157.612 175.875C159.752 175.302 161.888 174.724 164.028 174.141L165.185 173.828C172.065 171.958 172.065 171.958 178.768 169.557C180.32 168.953 181.471 168.714 183.143 168.807C184.086 168.859 184.086 168.859 184.966 168.75C186.065 167.943 186.065 167.943 186.726 167.276C188.403 165.896 190.586 165.198 192.57 164.349C193.325 164.021 194.08 163.693 194.836 163.365C195.356 163.135 195.872 162.911 196.393 162.682C217.893 153.651 217.893 153.651 236.632 140Z" fill="#EB735B"/>
<path d="M83.6995 179.083L84.835 179.078C85.6318 179.073 86.4339 179.073 87.2308 179.068C88.4339 179.062 89.6423 179.052 90.8454 179.036C95.4235 179.01 99.6318 179.078 103.851 181.078C107.804 183.739 110.028 186.068 112.226 190.344C114.689 196.375 114.299 202.75 114.267 209.135C114.267 210.219 114.267 211.307 114.267 212.391C114.262 214.646 114.257 216.906 114.246 219.167C114.236 222.068 114.231 224.969 114.231 227.87C114.231 230.099 114.226 232.333 114.22 234.562L114.215 237.776C114.21 239.26 114.205 240.75 114.2 242.239V243.588L114.189 244.807L114.184 245.875L114.132 246.667L113.715 247.083C113.064 247.125 112.413 247.141 111.762 247.141L110.486 247.146H109.069L107.585 247.151C106.241 247.151 104.892 247.156 103.543 247.156H101.012C98.0589 247.161 95.1058 247.161 92.1527 247.161C89.4131 247.161 86.6735 247.167 83.9391 247.172C81.5798 247.177 79.2204 247.182 76.861 247.182C75.46 247.182 74.0537 247.182 72.6475 247.187C65.4287 247.203 58.5693 246.974 51.5016 245.391L50.4808 245.172C49.1735 244.891 47.9027 244.594 46.6318 244.167C46.7881 243.359 46.7881 243.359 47.0485 242.5L47.8818 242.083H46.6318L46.2152 241.25L45.7985 242.083L44.9652 241.667C44.4964 240.807 44.4964 240.807 44.1318 240L44.9652 239.167V238.333H46.2152C46.5016 237.297 46.6318 236.51 46.6318 235.417V233.75L47.6475 232.63C48.2464 232 48.2464 232 48.7152 231.25C48.8975 230.297 48.9495 229.38 49.0016 228.411C49.1995 227.016 49.96 226.104 50.7985 225L51.2152 223.75H52.0485L51.2152 222.5C51.361 221.088 51.7777 219.984 52.4652 218.75H53.2985V219.583L54.2881 219.349L55.3818 219.167L56.2152 219.583L55.7985 218.333L56.6318 217.917V218.75L60.7985 217.917V218.75L62.2048 218.516L63.7152 218.333L64.5485 218.75C65.2048 218.792 65.861 218.802 66.5173 218.802H67.7568L69.0954 218.792H70.4652C71.9131 218.786 73.361 218.781 74.8089 218.776C75.7881 218.776 76.7673 218.776 77.7464 218.771C80.1527 218.771 82.5589 218.76 84.9652 218.75L85.3818 204.583H59.1318C59.762 203.323 60.2464 202.495 61.1162 201.443L61.7933 200.614L62.5173 199.739L64.0016 197.932L64.7256 197.052C65.5277 196.073 66.3193 195.083 67.1006 194.088C68.5537 192.266 70.0589 190.489 71.5693 188.713C73.6527 186.255 75.6943 183.766 77.7152 181.26C79.5641 178.989 80.8766 179.099 83.6995 179.083Z" fill="#F48D47"/>
<path d="M312.466 176.667C314.013 176.88 315.273 177.135 316.633 177.917L315.799 178.75H314.549L315.383 180C316.294 180.245 316.294 180.245 317.31 180.286L318.341 180.37L319.133 180.417L319.549 179.167L322.466 180.833V180C323.653 180.167 324.268 180.516 325.273 181.208C330.82 185.766 333.987 191.292 336.633 197.917C336.883 198.875 337.112 199.839 337.31 200.807L337.612 202.255C338.122 205.089 338.377 207.828 338.377 210.703V211.687C338.351 214.5 338.101 217.25 337.466 220L337.049 220.417C336.893 221.391 336.758 222.359 336.633 223.333H335.799L335.69 224.594C335.424 226.432 334.685 227.859 333.768 229.453L333.273 230.328C331.586 233.177 329.554 235.74 327.049 237.917C326.081 238.26 326.081 238.26 325.383 238.333V239.167C324.627 239.844 324.627 239.844 323.716 240.417H322.466V241.25C314.674 245.057 314.674 245.057 311.216 245.833L310.195 246.078C303.299 247.521 296.018 247.141 289.013 247.125H286.018C283.414 247.125 280.804 247.12 278.2 247.115C275.534 247.109 272.867 247.109 270.2 247.104C264.982 247.099 259.768 247.094 254.549 247.083C254.539 244.318 254.528 241.547 254.523 238.776C254.523 237.833 254.523 236.896 254.518 235.958C254.497 230.344 254.565 224.771 254.966 219.167H255.69C261.513 219.13 267.341 219.094 273.164 219.047C275.982 219.026 278.799 219.01 281.617 218.995C284.341 218.979 287.06 218.958 289.778 218.937C290.815 218.927 291.851 218.922 292.888 218.917C294.346 218.911 295.799 218.896 297.252 218.885L298.544 218.88C301.695 218.844 304.768 218.646 307.622 217.214C308.643 216.318 309.466 215.495 310.091 214.276C310.737 212.193 310.643 210.062 310.383 207.917C309.929 206.417 309.127 205.411 308.013 204.302C306.789 203.203 305.627 202.365 304.133 201.667V200.833L303.216 200.682C302.039 200.417 301.101 200.036 300.018 199.51L298.877 198.964L297.7 198.385L296.528 197.823C295.778 197.464 295.034 197.099 294.289 196.734C293.476 196.339 292.664 195.953 291.851 195.573C290.862 195.036 290.331 194.536 289.549 193.75C288.7 193.286 287.841 192.844 286.971 192.422L285.596 191.755L284.549 191.25V190.833H289.549L289.966 192.083H292.883V193.75C294.351 193.786 295.638 193.771 297.049 193.333L297.466 195.833H298.299V194.167L297.466 193.75V192.5L301.633 192.917L299.549 192.5V191.667H300.383V190C301.138 189.271 301.138 189.271 302.049 188.75H303.299V187.917H304.133V186.25L307.049 185.833V184.167H308.716V183.333H309.966L310.383 180.417L311.346 180.339L312.466 180C313.232 178.979 313.232 178.979 313.716 177.917L312.466 177.5V176.667Z" fill="#D14D84"/>
<path d="M154.965 177.083C154.783 181.963 154.533 186.828 154.132 191.693L154.028 192.979C153.768 196.01 153.768 196.01 153.512 197.213C153.231 198.698 153.122 200.187 153.012 201.693L152.939 202.677C152.887 203.37 152.83 204.062 152.778 204.755C152.643 206.568 152.502 208.38 152.361 210.193L152.278 211.266C152.064 214.026 151.814 216.786 151.533 219.547C151.299 221.911 151.106 224.276 150.929 226.646C150.851 227.667 150.773 228.687 150.695 229.708C150.643 230.38 150.596 231.052 150.544 231.729C149.981 239.745 149.981 239.745 148.169 242.5C146.679 244.49 144.721 245.677 142.465 246.667C141.221 247.042 140.111 247.135 138.82 247.141L137.632 247.146L136.367 247.141H135.059C134.148 247.141 133.236 247.141 132.33 247.141C130.929 247.135 129.528 247.141 128.132 247.141C127.247 247.141 126.367 247.141 125.481 247.141L124.205 247.146L123.033 247.141H121.997L121.215 247.083L120.799 246.667C120.799 245.911 120.825 245.161 120.872 244.406L120.96 242.88L121.07 241.167L121.127 240.271C121.715 230.854 122.58 221.458 123.403 212.057C123.747 208.125 124.085 204.193 124.429 200.26C124.549 198.906 124.663 197.547 124.783 196.193L125.106 192.479C125.346 189.693 125.544 186.901 125.695 184.109C125.783 183.104 125.929 182.219 126.215 181.25L127.377 181.094C129.184 180.844 130.997 180.594 132.804 180.338L133.799 180.203C138.736 179.505 143.637 178.703 148.533 177.719C150.721 177.292 152.731 176.974 154.965 177.083Z" fill="#F1824D"/>
<path d="M237.882 176.667L239.132 177.083C240.027 179.052 240.012 181.193 239.835 183.307C239.621 185.271 239.621 185.271 239.132 186.25H239.965L240.382 183.75L241.632 184.167C241.939 185.411 242.048 186.469 242.038 187.755C242.027 189.661 242.205 191.526 242.408 193.417L242.642 195.641L242.762 196.786C242.949 198.583 243.126 200.375 243.309 202.172L243.527 204.365C243.809 207.203 244.09 210.036 244.371 212.875C244.585 215.005 244.798 217.141 245.012 219.276C246.652 235.682 246.652 235.682 247.189 242.422L247.298 243.755L247.387 244.932L247.465 245.932V246.667L247.048 247.083C246.429 247.135 245.809 247.151 245.184 247.161L243.986 247.177L242.673 247.182L241.33 247.193C240.387 247.198 239.444 247.203 238.501 247.208C237.064 247.214 235.632 247.234 234.199 247.25C233.283 247.255 232.366 247.26 231.449 247.26L230.158 247.286C227.382 247.276 225.304 246.792 222.882 245.417C221.231 244.302 219.908 243.016 218.767 241.38C217.179 236.714 217.08 231.484 216.668 226.604C216.554 225.307 216.434 224.01 216.314 222.708C215.798 216.901 215.809 211.234 216.215 205.417H216.632L217.048 206.667L217.111 205.771C217.288 203.458 217.564 201.37 218.298 199.167H219.548L219.965 201.667L220.304 200.859L220.798 200L222.048 199.583L222.882 198.333H223.715L223.897 197.344C224.132 196.25 224.132 196.25 224.548 195.417H225.798V192.5L227.048 192.083V190.417L226.215 190L226.382 189.312C226.777 187.63 227.09 186 227.231 184.271C227.35 183.057 227.522 182.37 228.038 181.224L228.715 180.417H229.965L230.069 179.635L230.382 178.75C231.241 178.229 231.241 178.229 232.048 177.917L232.465 180L234.132 180.417L234.548 178.75H235.798V177.917H237.882V176.667Z" fill="#E05F72"/>
<path d="M324.132 0L324.965 0.416667V3.33333H324.132L324.002 4.22396C323.674 5.59375 323.132 6.63021 322.465 7.86458C321.085 10.5 320.007 13.2135 318.95 15.9896C317.424 19.974 315.72 23.7448 313.715 27.5L313.095 28.6771C305.642 42.8021 297.59 56.3854 287.611 68.8802C286.632 70.1094 285.653 71.3438 284.679 72.5781L284.106 73.3073C282.595 75.2292 281.174 77.1979 279.783 79.2031L279.132 80H278.299L278.184 80.75C277.882 81.6667 277.882 81.6667 277.215 82.3542L276.371 83.0208C275.215 83.9896 274.189 84.9427 273.22 86.0938C271.611 88 269.845 89.7292 268.064 91.4688C267.049 92.4688 266.174 93.3958 265.382 94.5833H264.549L264.241 95.3021C263.611 96.4427 262.851 97.2135 261.929 98.1354L260.84 99.2188L259.705 100.339L258.595 101.448C256.481 103.552 254.319 105.573 252.049 107.5L250.382 108.932L249.132 110L248.715 108.75L249.34 108.177L249.965 107.5V106.667L250.903 106.354C252.132 105.797 252.783 105.13 253.715 104.167H254.549L254.132 102.917L252.882 102.5L253.299 103.75L252.049 104.167L250.799 103.75L250.382 104.583V102.083C249.835 101.656 249.278 101.24 248.715 100.833V100L247.882 99.5833L249.132 98.75H250.382L250.46 97.8125L250.799 96.6667C251.476 96.0885 252.168 95.5365 252.882 95C253.267 94.5677 253.637 94.125 254.002 93.6719C254.965 92.5 254.965 92.5 255.799 92.0833L256.371 91.0677L257.049 90C257.601 89.7188 258.158 89.4375 258.715 89.1667C259.272 88.4792 259.83 87.7813 260.382 87.0833H261.215L260.913 86.349L260.799 85.4167C261.382 84.6458 261.382 84.6458 262.257 83.8542C263.689 82.5104 265.002 81.125 266.283 79.6354C267.127 78.6563 268.002 77.7031 268.871 76.7448C270.84 74.5573 272.71 72.3021 274.549 70L275.064 69.3594C281.804 60.9479 287.976 52.1719 293.507 42.9167L293.96 42.1667C295.621 39.3333 296.934 36.3177 298.299 33.3333L297.59 33.276C295.163 33.0781 292.736 32.875 290.309 32.6667C289.403 32.5938 288.496 32.5156 287.59 32.4427C286.288 32.3385 284.991 32.2292 283.689 32.1146L282.455 32.0156L281.314 31.9167L280.309 31.8333L279.549 31.6667L279.132 30.8333L279.97 30.3125C282.814 28.5156 285.595 26.6458 288.351 24.7135L289.611 23.8333C292.064 22.125 294.507 20.401 296.944 18.6719C303.283 14.1875 309.726 9.85417 316.205 5.57292C318.908 3.78646 321.569 1.98958 324.132 0Z" fill="#EB735A"/>
<path d="M134.549 148.75V150.417L133.299 150.833L134.132 153.333H135.382V154.167H136.215V156.667H137.465C137.476 157.833 137.486 158.995 137.491 160.156L137.502 161.161C137.512 163.656 137.512 163.656 137.049 164.583H136.215V162.5H135.382L134.965 163.333L133.715 163.75L133.299 166.25H132.465V167.083H131.632V167.917H130.799V169.167L132.205 168.906L133.715 168.75L134.549 169.583C133.892 169.818 133.231 170.042 132.569 170.26L131.455 170.646L130.382 170.833C129.522 170.516 128.944 170.229 128.299 169.583C127.606 169.568 126.908 169.568 126.215 169.583L128.299 170C128.22 170.99 128.22 170.99 127.882 172.083C126.741 172.734 125.762 172.922 124.47 173.125L123.299 173.333L122.465 174.167C121.444 174.323 120.424 174.438 119.397 174.51L118.45 174.589C117.783 174.641 117.116 174.693 116.45 174.745C115.465 174.818 114.476 174.896 113.486 174.979C106.002 175.583 98.5381 175.901 91.0277 175.875H88.8193C86.9131 175.87 85.012 175.87 83.1058 175.865C81.1527 175.859 79.1943 175.859 77.2412 175.854C73.4235 175.849 69.611 175.844 65.7985 175.833L65.3818 174.583L66.3089 174.083C67.5277 173.292 68.335 172.479 69.2881 171.38L70.2829 170.255C70.8298 169.62 71.3714 168.984 71.9131 168.344C73.6995 166.26 75.6162 164.339 77.5693 162.406C78.7412 161.24 79.887 160.073 80.9548 158.802C82.46 157.063 84.0537 155.417 85.6683 153.776L86.4964 152.927L87.2881 152.125L87.9964 151.406C88.7152 150.833 88.7152 150.833 89.5329 150.521C90.5068 150.406 91.0954 150.589 92.0485 150.833C93.1683 150.896 94.2777 150.943 95.4027 150.969L96.3766 150.995C97.3975 151.021 98.4183 151.047 99.4443 151.068L101.528 151.125C103.231 151.167 104.929 151.214 106.632 151.25V150.417L108.21 150.464C115.465 150.594 122.595 149.865 129.783 148.922C131.403 148.729 132.924 148.724 134.549 148.75Z" fill="#F6AD34"/>
<path d="M24.5485 187.083L25.7985 187.917C25.9704 189.047 25.8558 190.104 25.7985 191.25H26.6318L27.0485 188.75H27.4652V190.833H28.2985L28.4964 191.693C29.2152 194.547 30.236 197 31.6318 199.583L32.335 201.016C32.887 202.141 32.887 202.141 33.7152 203.333L34.1318 202.083H35.3818C36.3506 202.901 37.0016 203.677 37.6475 204.766C38.4183 206.031 39.3141 206.896 40.3818 207.917L41.0016 208.594C44.986 212.865 50.4548 215.406 55.9391 217.172C56.8558 217.448 57.7829 217.698 58.7152 217.917L57.4652 218.75H56.2152V219.583C55.2412 219.604 54.2725 219.604 53.2985 219.583L52.8818 219.167L52.0485 219.583C51.7256 221.177 51.5277 222.198 52.0485 223.75L51.2152 224.167V225.417H50.3818L50.2256 226.172C49.9652 227.083 49.9652 227.083 49.1318 228.333L49.9652 228.75H49.1318L49.2881 229.818C49.1318 231.25 49.1318 231.25 48.5745 232.068C47.9495 232.792 47.3037 233.49 46.6318 234.167L47.1266 235.078L47.4652 236.25C46.9704 237.422 46.9704 237.422 46.2152 238.333H44.9652L45.3818 239.583L44.1318 240V240.833L45.3818 241.25L45.7985 242.083L46.2152 240.833L46.6318 242.083L48.7152 241.667C48.1423 242.5 48.1423 242.5 47.4652 243.333H46.6318V244.167C42.3923 243.141 38.4079 241.62 34.5485 239.583V238.75L33.1162 238.385L31.6318 237.917L31.2152 237.083C30.3714 236.812 30.3714 236.812 29.5485 236.667V235.833H28.2985V234.583H26.6318C25.9183 233.906 25.2256 233.213 24.5485 232.5L23.5589 231.953C22.1891 231.078 21.3037 229.99 20.262 228.755C19.3818 227.724 18.4391 226.781 17.4652 225.833L17.8818 225L19.5485 226.25C18.4756 224.437 17.3402 222.724 16.0329 221.068C14.5954 219.25 13.2933 217.375 12.0485 215.417L11.4235 214.463C9.32454 211.125 7.24121 207.266 6.63184 203.333V202.917L5.7985 202.083C5.63184 201.12 5.49121 200.146 5.38184 199.167L6.78809 198.984C8.22559 198.844 8.22559 198.844 9.13184 198.333V199.167H9.96517V198.333H11.2152L11.6318 197.083C12.4391 196.771 12.4391 196.771 13.2985 196.667L14.1318 197.083V195.833L13.2985 195.417C15.2777 195.781 15.2777 195.781 16.2152 196.25L16.6318 194.583L19.1318 195.417V194.583L20.3818 194.167L20.7985 193.333C21.9027 193.088 23.0016 193.026 24.1318 192.917L24.5485 190H22.8818V188.75H23.7152V187.917H24.5485V187.083Z" fill="#F6A137"/>
<path d="M324.132 3.33325H325.382C325.445 20.7083 325.361 38.0624 324.549 55.4166H323.715C323.158 54.7864 323.158 54.7864 322.518 53.8905L321.799 52.901L321.033 51.8228C320.507 51.0989 319.981 50.3749 319.45 49.651L318.653 48.552C317.559 47.0676 316.439 45.5937 315.304 44.1405L314.742 43.4166C313.898 42.3385 313.2 41.6041 312.049 40.8333L311.783 41.8124C311.007 43.901 309.924 45.7551 308.82 47.6822L308.096 48.953C304.21 55.7291 300.2 62.3593 295.611 68.6822C294.919 69.651 294.236 70.6301 293.564 71.6093C290.304 76.3333 286.882 80.9374 283.299 85.4166L282.747 86.1145C280.71 88.6718 278.57 91.1145 276.356 93.5208C275.528 94.427 274.721 95.3437 273.924 96.276C272.465 97.9583 270.887 99.5051 269.304 101.062C268.429 101.953 267.59 102.875 266.788 103.828C265.617 105.198 264.351 106.349 262.981 107.51C261.856 108.505 260.809 109.562 259.757 110.625C257.96 112.448 256.085 114.182 254.132 115.833L252.627 117.125C251.184 118.365 249.742 119.599 248.299 120.833L247.465 120L247.882 119.167L247.127 119.583C246.215 120 246.215 120 244.965 120V119.167L243.299 118.75C243.497 117.693 243.768 117 244.34 116.068C245.028 115.047 245.028 115.047 245.122 113.906L245.382 112.917C246.32 112.292 246.32 112.292 247.465 111.667C248.169 110.984 248.867 110.292 249.549 109.583C249.939 109.187 250.335 108.786 250.726 108.391L251.34 107.771C254.507 104.583 254.507 104.583 256.137 103.203C257.851 101.745 259.439 100.161 261.033 98.5676L261.825 97.7864C263.122 96.4843 264.372 95.1562 265.575 93.7655C267.351 91.703 269.288 89.8228 271.231 87.9166C272.908 86.2603 274.486 84.5624 275.986 82.7395C276.632 82.0833 276.632 82.0833 277.882 81.6666C278.189 80.828 278.189 80.828 278.299 79.9999H279.132L279.419 79.1093C280.07 77.6926 280.965 76.6458 281.997 75.4947C284.247 72.9114 286.304 70.2083 288.34 67.453C289.075 66.4635 289.82 65.4843 290.585 64.5155C295.304 58.5416 299.419 52.1197 303.184 45.5155C303.757 44.5155 304.33 43.5208 304.908 42.5208C310.653 32.5624 316.054 22.6353 320.195 11.8905C321.08 9.60929 322.028 7.51554 323.299 5.41659C323.59 4.72909 323.877 4.03638 324.132 3.33325Z" fill="#E493A2"/>
<path d="M123.716 115.417C126.903 115.375 130.091 115.349 133.278 115.328C134.362 115.318 135.445 115.307 136.528 115.292C138.091 115.271 139.648 115.266 141.211 115.255L142.664 115.229C145.705 115.229 148.091 115.677 150.799 117.083C152.497 118.208 153.513 119.495 154.653 121.172L155.132 121.88C156.997 124.656 158.69 127.536 160.382 130.417L161.117 131.51C161.705 132.641 161.674 133.333 161.632 134.583C152.424 137.042 143.195 139.365 133.794 140.964L132.627 141.167C130.445 141.521 128.273 141.745 126.07 141.896L124.492 142.005L123.299 142.083C123.289 138.979 123.284 135.87 123.278 132.76C123.273 131.318 123.273 129.875 123.268 128.432C123.263 126.771 123.257 125.109 123.257 123.448L123.252 121.885V120.422L123.247 119.135C123.299 117.87 123.481 116.667 123.716 115.417Z" fill="#F49C43"/>
<path d="M106.632 117.5C106.085 119.146 105.272 120.364 104.252 121.739C103.736 122.469 103.293 123.208 102.856 123.984C102.09 125.344 101.252 126.625 100.382 127.917L99.9652 128.75H99.1318L98.8193 129.635C98.2256 131.005 97.4808 132.109 96.6318 133.333C96.1891 133.984 95.7464 134.635 95.3037 135.286L94.6579 136.229C94.0693 137.114 94.0693 137.114 93.7152 138.333C93.1787 138.906 92.6214 139.463 92.0485 140L91.486 140.651C90.7985 141.25 90.7985 141.25 89.8714 141.542L88.8714 141.719C88.262 141.833 87.6527 141.953 87.0485 142.083L86.6318 142.5L87.0485 143.333H64.1318V142.5C66.637 142.062 69.0693 142.036 71.6058 142.057L72.8298 142.062C73.8193 142.068 74.8089 142.078 75.7985 142.083L76.2152 141.25L74.5485 140.833H79.1318C77.8037 140.505 76.6318 140.307 75.2777 140.182L74.1527 140.078L73.2985 140V139.167L72.0485 138.75L72.96 138.802C74.2204 138.75 75.0745 138.437 76.2152 137.917V134.583H75.3818V135.417L73.7152 135C74.6266 133.984 74.6266 133.984 75.7985 132.917C76.9131 132.646 76.9131 132.646 77.8818 132.5L77.7308 131.161C77.2829 126.51 77.2829 126.51 77.762 124.739C78.1735 123.948 78.6214 123.229 79.1318 122.5C80.0537 120.911 80.0537 120.911 80.3818 119.167H81.6318V118.333L79.9652 117.917C85.2725 117.609 90.5745 117.396 95.887 117.271C97.0693 117.239 98.2516 117.208 99.4391 117.177C100.194 117.156 100.95 117.141 101.71 117.12L102.772 117.094C104.179 117.062 105.288 117.057 106.632 117.5Z" fill="#F6A136"/>
<path d="M289.888 115.38H291.273C292.721 115.38 294.169 115.385 295.617 115.391C296.601 115.396 297.591 115.396 298.575 115.396C300.982 115.401 303.393 115.411 305.799 115.417V115.833L300.799 116.25V116.667C299.091 116.75 297.377 116.828 295.669 116.901L294.195 116.974L292.784 117.036L291.482 117.094C290.383 117.083 290.383 117.083 289.133 116.667L289.039 117.458C288.872 118.5 288.679 119.432 288.299 120.417C287.153 121.016 287.153 121.016 285.799 121.25C285.393 121.396 284.992 121.542 284.575 121.693C283.179 122.12 281.825 122.328 280.383 122.5L279.966 124.167H285.799V125H280.799V127.083H279.966L279.982 128.167C279.982 128.625 279.987 129.083 279.992 129.557L280.008 130.953L279.966 132.083L279.549 132.5C278.716 132.521 277.883 132.521 277.049 132.5V133.75L275.799 133.333L276.216 132.917L273.299 132.5V134.583H270.383V135.417H269.549V136.667L268.716 136.25L269.133 134.583H268.299V135.417H267.466L267.883 138.333H264.549L264.133 137.5L262.883 137.083V137.917L261.633 139.167V140H260.799L260.721 140.755L260.383 141.667C259.69 142.094 258.997 142.51 258.299 142.917C257.747 143.781 257.747 143.781 257.466 144.583L256.737 144.297L255.799 144.167C254.857 144.604 254.857 144.604 254.133 145.417C254.023 146.568 254.023 146.568 254.237 147.786L254.398 149.042C254.45 149.359 254.497 149.677 254.549 150L252.883 150.833C252.857 152.234 252.841 153.63 252.831 155.026C252.825 155.422 252.815 155.812 252.81 156.219C252.794 158.5 252.971 160.344 253.716 162.5L254.133 164.115L254.549 165.417L255.383 165.833V168.333H256.216L257.466 172.5C256.429 172.01 255.789 171.615 254.966 170.833C252.226 166.698 250.929 161.552 250.383 156.667C250.101 151.536 250.284 146.651 251.633 141.667L251.982 140.365C253.872 134.115 257.226 129.766 261.778 125.286C266.752 120.646 273.174 117.818 279.7 116.141C283.096 115.458 286.429 115.359 289.888 115.38Z" fill="#EB735B"/>
<path d="M237.882 176.667L239.132 177.083C240.027 179.052 240.012 181.193 239.835 183.307C239.621 185.271 239.621 185.271 239.132 186.25H239.965L240.382 183.75L241.632 184.167C241.939 185.406 242.048 186.464 242.038 187.74C242.022 189.734 242.225 191.693 242.439 193.672L242.668 195.875L242.777 196.937C242.97 198.792 243.137 200.646 243.298 202.5H242.465L242.048 203.75L241.923 203C241.418 200.208 240.58 197.641 239.548 195C239.179 196.115 238.934 197.182 238.715 198.333H237.465V196.667H234.965L233.715 200H232.882L232.543 201.016L232.048 202.083L230.798 202.5V203.333H229.965V204.167L228.298 204.583L228.179 205.333C227.882 206.25 227.882 206.25 227.246 206.964L226.475 207.604L225.71 208.266L224.965 208.75H223.715L222.882 210.417H221.632V211.25H220.382L219.965 212.083L219.132 210.417C218.08 215.911 218.798 221.677 219.22 227.208C219.564 231.75 219.788 236.286 219.965 240.833C219.158 240.542 219.158 240.542 218.298 240C217.705 238.422 217.642 236.672 217.465 235L217.356 233.979C217.1 231.526 216.871 229.068 216.668 226.604C216.554 225.307 216.434 224.01 216.314 222.708C215.798 216.901 215.809 211.234 216.215 205.417H216.632L217.048 206.667L217.111 205.771C217.288 203.458 217.564 201.37 218.298 199.167H219.548L219.965 201.667L220.304 200.859L220.798 200L222.048 199.583L222.882 198.333H223.715L223.897 197.344C224.132 196.25 224.132 196.25 224.548 195.417H225.798V192.5L227.048 192.083V190.417L226.215 190L226.382 189.312C226.777 187.63 227.09 186 227.231 184.271C227.35 183.057 227.522 182.37 228.038 181.224L228.715 180.417H229.965L230.069 179.635L230.382 178.75C231.241 178.229 231.241 178.229 232.048 177.917L232.465 180L234.132 180.417L234.548 178.75H235.798V177.917H237.882V176.667Z" fill="#E5676A"/>
<path d="M254.965 219.167H299.965V219.583H286.215V220.417C284.695 220.75 283.257 220.854 281.71 220.833C278.481 220.802 275.268 221.042 272.049 221.25L272.465 222.5H269.549V228.333H270.382V230.833H269.549L269.965 232.083H268.715L267.882 234.583H266.632V240.417H264.965L265.226 241.12C265.382 242.083 265.382 242.083 265.148 243.203L264.549 244.167C263.247 244.505 263.247 244.505 262.049 244.583L262.465 245.833H281.215L280.382 247.083C279.299 247.234 279.299 247.234 277.913 247.229H276.351L274.648 247.208C274.07 247.203 273.492 247.203 272.913 247.203C271.393 247.198 269.872 247.187 268.351 247.172C266.799 247.156 265.242 247.151 263.689 247.146C260.643 247.13 257.596 247.115 254.549 247.083C254.538 244.318 254.528 241.547 254.523 238.776C254.523 237.833 254.523 236.896 254.518 235.958C254.512 234.594 254.507 233.229 254.507 231.87L254.502 230.63C254.502 226.786 254.752 223.031 254.965 219.167Z" fill="#DF5E72"/>
<path d="M244.965 113.333C245.278 114.01 245.278 114.01 245.382 115C244.846 115.849 244.288 116.682 243.715 117.5V118.75L244.965 119.167V120L245.721 119.583C246.632 119.167 246.632 119.167 247.882 119.167C247.965 120.13 247.965 120.13 247.882 121.25C247.314 121.937 247.314 121.937 246.502 122.542L245.596 123.234L244.601 123.958L243.58 124.729C242.518 125.521 241.45 126.307 240.382 127.083L239.393 127.818C230.153 134.635 220.502 140.823 210.382 146.25C210.028 146.443 209.674 146.635 209.304 146.833C202.867 150.318 196.283 153.391 189.549 156.25L188.273 156.797C176.658 161.682 163.752 166.984 151.215 168.75L150.799 167.917C152.122 167.036 153.007 166.818 154.549 166.458C161.695 164.677 168.674 161.766 175.382 158.75C175.96 158.505 176.538 158.255 177.117 158.005C181.518 156.109 185.752 153.963 189.971 151.693C191.07 151.109 192.179 150.552 193.299 150V150.833L194.965 151.25V149.583L197.049 150L197.465 149.167H198.715C199.361 149.062 200.002 148.937 200.643 148.802L201.648 148.599L202.465 148.333L202.882 147.5C203.57 147.203 204.262 146.927 204.965 146.667C207.007 145.885 207.007 145.885 208.715 144.583L209.992 144.375L211.215 144.167L211.632 143.333C212.325 142.948 213.028 142.583 213.742 142.24L214.903 141.677L215.799 141.25L214.965 140.833V139.583L214.132 139.167L214.939 138.906L215.799 138.333L215.95 137.146L216.215 135.833C216.96 135.01 216.96 135.01 217.96 134.271L219.111 133.411L220.382 132.5L221.689 131.552C223.492 130.255 225.309 128.974 227.122 127.693C230.835 125.068 234.455 122.396 237.887 119.411C239.492 118.026 241.132 116.698 242.783 115.365C243.549 114.729 244.273 114.052 244.965 113.333Z" fill="#F6A372"/>
<path d="M334.132 212.917L334.392 213.969L334.731 215.339L335.069 216.703C335.283 217.531 335.528 218.354 335.799 219.167C335.621 221.365 335.241 223.276 334.132 225.182L333.299 226.25C333.007 226.802 332.731 227.354 332.465 227.917L331.632 229.583H330.799L330.72 230.703C330.382 232.083 330.382 232.083 329.418 233.177L328.299 234.167L327.387 235.13C327.137 235.365 326.887 235.594 326.632 235.833H325.799L325.382 237.083C324.559 237.521 323.726 237.937 322.882 238.333L322.049 239.167C320.179 240.479 318.408 241.417 316.215 242.083L314.965 242.786C313.715 243.333 313.715 243.333 312.387 243.229C311.569 243.01 310.762 242.771 309.965 242.5V243.333L307.882 242.917C308.299 241.667 308.299 241.667 309.132 240.833C309.366 239.896 309.366 239.896 309.522 238.828C309.825 237.187 310.147 235.917 311.215 234.583H312.049L311.632 233.333L312.413 233.281L313.299 232.917L313.689 231.693C313.835 231.276 313.981 230.854 314.132 230.417C315.226 229.844 315.226 229.844 316.215 229.583V228.333C316.793 227.786 316.793 227.786 317.569 227.266L318.377 226.714C319.132 226.25 319.132 226.25 320.069 225.885C320.84 225.474 320.84 225.474 321.174 224.724C321.491 223.99 321.772 223.25 322.049 222.5H322.882L323.22 221.562C323.694 220.464 324.168 219.646 324.965 218.75H325.799V217.917L327.049 217.5L327.882 216.25C328.314 216.797 328.731 217.349 329.132 217.917V218.75L332.465 217.917V216.667H330.382V215.417H331.215L331.319 214.635L331.632 213.75C332.528 213.177 333.064 212.917 334.132 212.917Z" fill="#CB458B"/>
<path d="M275.799 82.9166L276.215 83.75L275.382 85L276.632 87.5L275.382 87.9166L274.549 86.25C272.96 87.5885 271.403 88.9218 269.965 90.4166L270.408 91.5885L270.799 92.9166L270.382 94.1666H272.465L272.049 92.9166C272.283 92.0312 272.283 92.0312 272.882 91.25C274.132 90.9635 274.132 90.9635 275.382 90.8333L276.215 90.4166L276.528 89.2187L277.049 87.9166C278.273 87.2135 278.273 87.2135 279.549 86.6666C279.976 86.2604 280.393 85.8437 280.799 85.4166H281.632C281.143 88.25 281.143 88.25 280.268 89.5208C279.611 90.2656 278.929 90.9687 278.221 91.6666L276.736 93.1979L276.018 93.927C275.262 94.7083 274.549 95.526 273.846 96.3541C272.419 98.0156 270.861 99.5312 269.304 101.062C268.429 101.953 267.59 102.875 266.788 103.828C265.617 105.198 264.351 106.349 262.981 107.51C261.856 108.505 260.809 109.562 259.757 110.625C257.96 112.448 256.085 114.182 254.132 115.833L252.627 117.125C251.184 118.365 249.742 119.599 248.299 120.833L247.465 120L247.882 119.167L247.127 119.583C246.215 120 246.215 120 244.965 120V119.167L243.299 118.75C243.497 117.693 243.768 117 244.34 116.068C245.028 115.047 245.028 115.047 245.122 113.906L245.382 112.917C246.32 112.292 246.32 112.292 247.465 111.667C248.169 110.984 248.867 110.292 249.549 109.583C249.939 109.187 250.335 108.786 250.726 108.391L251.34 107.771C254.507 104.583 254.507 104.583 256.137 103.203C257.851 101.745 259.439 100.161 261.033 98.5677L261.825 97.7864C263.122 96.4843 264.372 95.1614 265.57 93.7656C267.106 91.9895 268.757 90.3437 270.434 88.6979C272.325 86.8437 274.137 84.9895 275.799 82.9166Z" fill="#ED968A"/>
<path d="M205.382 96.2499L206.215 96.6666V97.4999L208.715 98.3332V99.1666H209.549C210.617 100.708 211.137 102.021 211.299 103.875C211.34 105.932 211.242 107.729 210.429 109.635C209.309 111.531 207.705 112.849 205.955 114.141C203.45 114.932 200.799 114.891 198.221 114.422C197.075 114.026 196.294 113.422 195.486 112.542C194.84 111.713 194.242 110.911 193.715 110V109.167L192.882 108.75L192.465 107.5L192.882 106.667H192.049V103.75H192.882L192.465 102.083H193.299L192.882 100.833C193.601 99.6457 194.205 99.1197 195.382 98.3332L196.424 97.4999C199.481 95.0572 201.7 95.0728 205.382 96.2499Z" fill="#F6A33B"/>
<path d="M247.736 65.7552C249.309 66.4427 250.47 67.125 251.601 68.4323C252.679 70.0104 253.621 71.474 253.798 73.4167C253.84 75.4688 253.767 77.3125 252.96 79.2135C251.835 81.0104 250.132 82.2813 248.366 83.4063C246.257 84.2135 243.845 83.9479 241.632 83.75C240.298 83.4219 239.351 82.9635 238.298 82.0833C236.981 80.6979 236.033 79.2604 235.226 77.526C234.814 75.5052 234.632 73.6302 235.22 71.625C236.106 69.599 237.423 68.2187 239.132 66.8385C241.668 65.0521 244.809 64.8698 247.736 65.7552Z" fill="#D86BA3"/>
<path d="M225.695 56.9948C226.632 57.0833 226.632 57.0833 227.83 57.5781C228.888 58.4843 229.419 59.1302 229.966 60.4166C230.205 62.0312 230.101 63.3593 229.575 64.8958C228.486 66.0885 227.403 66.6302 225.914 67.2291C224.966 67.5 224.966 67.5 223.585 67.4479C222.591 67.125 221.705 66.776 220.799 66.25V65.4166L219.966 65V63.75L219.132 63.3333C218.981 62.0833 218.877 61.2187 219.132 60C220.981 57.7239 222.83 56.9531 225.695 56.9948Z" fill="#F49F46"/>
<path d="M266.565 46.8229C267.466 47.0833 267.466 47.0833 268.716 47.9166C269.502 49.0937 269.747 49.6666 269.966 51.0156C270.039 52.3385 269.929 53.0364 269.497 54.3229C268.716 55.4166 268.716 55.4166 267.804 56.1979C266.554 56.6979 265.476 56.8698 264.132 56.8177C262.752 56.5677 261.856 55.8854 260.799 55C259.966 53.75 259.966 53.75 259.81 52.1614C259.846 50.8125 260.023 50.302 260.669 49.0364C262.492 46.9166 263.825 46.3854 266.565 46.8229Z" fill="#D86BA3"/>
<path d="M182.882 169.167V170C180.643 171.219 178.315 172.016 175.903 172.812L174.596 173.25C170.747 174.516 166.856 175.573 162.929 176.562L161.606 176.901L160.429 177.193L159.549 177.5L159.132 178.333L159.914 179.479C160.799 180.833 160.799 180.833 161.268 181.797L161.632 182.5L162.466 182.917C162.784 183.62 163.096 184.323 163.382 185.042C163.69 185.771 164.039 186.479 164.393 187.187C164.966 188.333 164.966 188.333 165.382 189.583L164.132 189.167C163.57 188.338 163.018 187.505 162.466 186.667H161.632C161.174 186.047 161.174 186.047 160.685 185.177L160.138 184.234L159.575 183.229C159.205 182.588 158.841 181.943 158.471 181.297L157.976 180.427C157.476 179.557 157.476 179.557 156.778 178.75L156.216 177.917V176.25L157.627 175.87C159.393 175.391 161.159 174.911 162.924 174.432C163.679 174.224 164.44 174.021 165.195 173.818C169.497 172.656 173.752 171.453 177.945 169.932C179.648 169.333 181.07 169.052 182.882 169.167Z" fill="#F1814D"/>
<path d="M113.715 197.917H114.132C114.142 204.266 114.147 210.615 114.153 216.964C114.153 219.911 114.158 222.859 114.163 225.807C114.168 228.651 114.168 231.495 114.168 234.333C114.174 235.422 114.174 236.51 114.174 237.594C114.179 239.115 114.179 240.63 114.179 242.146L114.184 243.521L114.179 244.766L114.184 245.854L114.132 246.667L113.715 247.083C113.012 247.115 112.309 247.12 111.606 247.109L110.444 247.099L109.549 247.083L109.132 246.25H113.299L113.293 244.437C113.288 238.802 113.283 233.167 113.278 227.531C113.272 224.635 113.272 221.734 113.267 218.839C113.262 216.047 113.262 213.25 113.257 210.458C113.257 209.391 113.257 208.323 113.252 207.255C113.252 205.76 113.252 204.271 113.252 202.781L113.246 201.427V199.135L113.299 198.333L113.715 197.917Z" fill="#F7A473"/>
<path d="M64.1325 115C65.0752 114.958 66.0231 114.948 66.971 114.948H67.8721C68.8669 114.943 69.8617 114.943 70.8617 114.948H72.9658C74.4554 114.943 75.9398 114.948 77.4242 114.948C79.2835 114.948 81.1429 114.948 82.9971 114.948C92.5492 114.937 102.086 115.083 111.632 115.417L111.216 116.667L110.382 116.25C109.778 116.219 109.174 116.203 108.565 116.208H107.409L106.138 116.219L104.799 116.224C103.841 116.224 102.882 116.229 101.919 116.234C100.403 116.24 98.8877 116.245 97.3669 116.25C93.0492 116.26 88.7367 116.276 84.4189 116.292C81.7783 116.302 79.1429 116.312 76.5023 116.312C75.4971 116.318 74.4919 116.323 73.4814 116.328C72.0752 116.333 70.6689 116.339 69.2627 116.339L67.9919 116.349H66.8356L65.8252 116.354C64.9658 116.25 64.9658 116.25 63.7158 115.417L64.1325 115Z" fill="#F6C97D"/>
<path d="M286.815 245.797H287.919C289.08 245.797 290.237 245.802 291.398 245.807C292.185 245.812 292.976 245.812 293.768 245.812C295.695 245.818 297.622 245.828 299.549 245.833V247.083H280.382L279.966 246.25C282.268 245.859 284.481 245.781 286.815 245.797Z" fill="#D86BA3"/>
<path d="M82.3249 179.13H83.7415L85.2259 179.141L86.7207 179.146C87.9395 179.151 89.1634 179.161 90.3822 179.167V179.583L89.1478 179.646L87.5436 179.74L85.9447 179.828C84.4967 179.901 84.4967 179.901 83.2988 180.833L81.7624 180.911C80.8665 180.969 80.8665 180.969 79.9655 181.25C79.002 181.953 78.1738 182.708 77.3249 183.547L76.6322 184.167H75.7988C76.3613 182.948 77.002 181.979 77.8822 180.963L78.5332 180.203C79.7051 178.99 80.6999 179.12 82.3249 179.13Z" fill="#F59E54"/>
<path d="M123.716 115.417H134.132C132.471 116.25 131.757 116.333 129.966 116.25L131.398 116.406L132.882 116.667L133.299 117.5C132.346 117.536 131.388 117.562 130.435 117.578L128.825 117.625L127.466 117.5L126.632 116.25C125.138 116.146 125.138 116.146 123.716 116.25V115.417Z" fill="#F6A137"/>
<path d="M253.716 112.917L254.549 113.75L253.924 114.271L253.299 115V116.667L252.179 117.005C250.893 117.469 249.856 118.016 248.716 118.75L248.299 117.5C248.768 117.151 249.237 116.807 249.705 116.458L250.497 115.875L251.216 115.417H252.049V114.583H252.882V113.333L253.716 112.917ZM143.716 147.083L143.299 147.917H142.049V148.75L140.773 148.49C138.992 148.323 137.867 148.51 136.216 149.167L135.799 150.417L134.966 150V148.75L133.716 148.333C134.914 148.125 136.112 147.917 137.31 147.708L138.33 147.531C140.148 147.219 141.862 147.016 143.716 147.083Z" fill="#F7A473"/>
<path d="M69.5492 136.25C70.3877 136.505 71.2262 136.781 72.0492 137.083L72.4658 137.917C71.5023 138.224 70.5283 138.5 69.5492 138.75L68.7158 138.333L69.5492 136.25Z" fill="#F6A137"/>
<path d="M36.6318 205C39.1683 206.036 40.7829 208.349 42.4652 210.417C40.8454 209.76 39.8245 208.708 38.611 207.474L37.486 206.344L36.6318 205.417V205Z" fill="#F6B377"/>
<path d="M272.882 87.9166H274.132L273.299 89.5833H272.465L271.632 91.25L270.799 90.8333C271.335 89.6406 271.851 88.7395 272.882 87.9166Z" fill="#ED968B"/>
<path d="M100.799 129.583H101.632C101.049 131.432 100.127 132.448 98.7158 133.75V132.5C100.075 130.307 100.075 130.307 100.799 129.583Z" fill="#F6C97D"/>
<path d="M150.382 168.333L149.966 169.167C148.924 169.432 148.924 169.432 147.648 169.635L146.372 169.849L145.382 170L144.966 169.167C146.856 168.562 148.372 168.24 150.382 168.333Z" fill="#F7A473"/>
<path d="M304.132 242.083L305.746 242.213L306.653 242.286L307.465 242.5L308.299 243.75H304.132V242.083Z" fill="#CB458C"/>
<path d="M316.632 178.333L319.549 178.75C319.054 179.375 319.054 179.375 318.299 180C317.179 180.078 317.179 180.078 316.216 180L316.632 178.333Z" fill="#D14D85"/>
<path d="M212.049 138.75L213.299 139.167C212.596 139.974 212.596 139.974 211.632 140.833C210.486 141.146 210.486 141.146 209.549 141.25C209.861 140.469 209.861 140.469 210.382 139.583C211.189 139.036 211.189 139.036 212.049 138.75Z" fill="#F7A473"/>
<path d="M29.9658 192.5H30.7992L32.0492 196.667L30.7992 196.25C30.0856 194.87 29.9658 194.094 29.9658 192.5Z" fill="#F6C97D"/>
<path d="M254.549 145.417L255.382 145.833V146.667H256.215V149.167L254.965 148.333C254.679 146.823 254.679 146.823 254.549 145.417Z" fill="#E5666A"/>
<path d="M263.715 141.25L264.132 142.083C263.585 143.177 263.585 143.177 262.882 144.167H262.049C262.179 143.177 262.179 143.177 262.465 142.083L263.715 141.25Z" fill="#E6676A"/>
<path d="M97.4652 133.75H98.7152C98.2204 135.156 97.7673 136.104 96.6318 137.083C96.6318 135.516 96.7308 135.036 97.4652 133.75Z" fill="#F6C97D"/>
<path d="M60.7988 143.333V144.167L57.4655 144.583L57.0488 143.75C58.3822 143.307 59.403 143.302 60.7988 143.333Z" fill="#F6C779"/>
<path d="M140.799 170.417V171.25L137.465 171.667L137.049 170.833C138.382 170.391 139.403 170.385 140.799 170.417Z" fill="#F7A473"/>
<path d="M64.471 142.891L65.3825 143.333V143.75H61.6325L61.2158 142.917C62.5127 142.547 63.1689 142.458 64.471 142.891Z" fill="#F6C97D"/>
<path d="M265.382 135.417H266.632V137.5H264.965L264.549 136.25H265.382V135.417Z" fill="#E05F72"/>
<path d="M244.966 115.833H247.049V117.5L244.966 117.083V115.833Z" fill="#F7A473"/>
</svg>
